<svg width="24" height="24" viewBox="0 0 24 24" fill="none" xmlns="http://www.w3.org/2000/svg">
<path d="M12 23C18.0751 23 23 18.0751 23 12C23 5.92487 18.0751 1 12 1C5.92487 1 1 5.92487 1 12C1 18.0751 5.92487 23 12 23Z" fill="#0EBE75" stroke="white" stroke-width="2"></path>
<path fill-rule="evenodd" clip-rule="evenodd" d="M17.0217 8.62059C17.3539 8.93916 17.3649 9.46668 17.0463 9.79884L11.185 15.91C11.0251 16.0767 10.8032 16.1695 10.5723 16.1664C10.3413 16.1632 10.122 16.0644 9.96674 15.8934L6.93913 12.5601C6.62969 12.2194 6.65502 11.6924 6.99571 11.3829C7.33639 11.0735 7.86342 11.0988 8.17286 11.4395L10.6002 14.1119L15.8435 8.64517C16.162 8.31302 16.6896 8.30201 17.0217 8.62059Z" fill="white"></path>
</svg>