<svg width="120px" height="120px" viewBox="0 0 120 120" version="1.1" xmlns="http://www.w3.org/2000/svg" xmlns:xlink="http://www.w3.org/1999/xlink">
    <defs></defs>
    <g id="EN" stroke="none" stroke-width="1" fill="none" fill-rule="evenodd">
        <g id="united-kingdom" fill-rule="nonzero">
            <circle id="Oval" fill="#F0F0F0" cx="60" cy="60" r="60"></circle>
            <g id="Group" transform="translate(1.875000, 1.875000)" fill="#0052B4">
                <path d="M10.528125,21.5957812 C5.81507813,27.7277344 2.26125,34.7953125 0.191953125,42.4732031 L31.4055469,42.4732031 L10.528125,21.5957812 Z" id="Shape"></path>
                <path d="M116.058047,42.4732031 C113.98875,34.7955469 110.434687,27.7279687 105.721875,21.5960156 L84.8449219,42.4732031 L116.058047,42.4732031 Z" id="Shape"></path>
                <path d="M0.191953125,73.7775 C2.26148438,81.4551563 5.8153125,88.5227344 10.528125,94.6544531 L31.4048438,73.7775 L0.191953125,73.7775 Z" id="Shape"></path>
                <path d="M94.6542187,10.5283594 C88.5222656,5.8153125 81.4549219,2.26148438 73.7770313,0.191953125 L73.7770313,31.4053125 L94.6542187,10.5283594 Z" id="Shape"></path>
                <path d="M21.5957812,105.721641 C27.7277344,110.434687 34.7953125,113.988516 42.4729687,116.058047 L42.4729687,84.8449219 L21.5957812,105.721641 Z" id="Shape"></path>
                <path d="M42.4727344,0.191953125 C34.7950781,2.26148438 27.7275,5.8153125 21.5957813,10.528125 L42.4727344,31.4050781 L42.4727344,0.191953125 Z" id="Shape"></path>
                <path d="M73.7772656,116.058047 C81.4549219,113.988516 88.5225,110.434687 94.6542187,105.721875 L73.7772656,84.8449219 L73.7772656,116.058047 Z" id="Shape"></path>
                <path d="M84.8449219,73.7775 L105.721875,94.6546875 C110.434687,88.5229688 113.98875,81.4551563 116.058047,73.7775 L84.8449219,73.7775 Z" id="Shape"></path>
            </g>
            <path d="M119.492109,52.1739844 L67.8264844,52.1739844 L67.82625,52.1739844 L67.82625,0.507890625 C65.2642969,0.174375 62.6524219,0 60,0 C57.3471094,0 54.7357031,0.174375 52.1739844,0.507890625 L52.1739844,52.1735156 L52.1739844,52.17375 L0.507890625,52.17375 C0.174375,54.7357031 5.68434189e-14,57.3475781 5.68434189e-14,60 C5.68434189e-14,62.6528906 0.174375,65.2642969 0.507890625,67.8260156 L52.1735156,67.8260156 L52.17375,67.8260156 L52.17375,119.492109 C54.7357031,119.825625 57.3471094,120 60,120 C62.6524219,120 65.2642969,119.825859 67.8260156,119.492109 L67.8260156,67.8264844 L67.8260156,67.82625 L119.492109,67.82625 C119.825625,65.2642969 120,62.6528906 120,60 C120,57.3475781 119.825625,54.7357031 119.492109,52.1739844 Z" id="Shape" fill="#D80027"></path>
            <path d="M75.6522656,75.6522656 L102.426328,102.426562 C103.657734,101.195625 104.832422,99.9086719 105.953203,98.5746094 L83.0308594,75.6522656 L75.6522656,75.6522656 Z" id="Shape" fill="#D80027"></path>
            <path d="M44.3477344,75.6525 L44.3472656,75.6525 L17.5734375,102.426328 C18.804375,103.657734 20.0913281,104.832422 21.4253906,105.953203 L44.3477344,83.0303906 L44.3477344,75.6525 Z" id="Shape" fill="#D80027"></path>
            <path d="M44.3477344,44.3482031 L44.3477344,44.3477344 L17.5736719,17.5734375 C16.3422656,18.804375 15.1675781,20.0913281 14.0467969,21.4253906 L36.969375,44.3479687 L44.3477344,44.3482031 Z" id="Shape" fill="#D80027"></path>
            <path d="M75.6522656,44.3482031 L102.426562,17.5736719 C101.195625,16.3422656 99.9086719,15.1675781 98.5746094,14.0470312 L75.6522656,36.9696094 L75.6522656,44.3482031 Z" id="Shape" fill="#D80027"></path>
        </g>
        <circle id="Oval-9" stroke-opacity="0.1" stroke="#000000" cx="60" cy="60" r="60"></circle>
    </g>
</svg>