<svg xmlns="http://www.w3.org/2000/svg" viewBox="0 0 131.74 168.14"><defs><style>.cls-1{isolation:isolate;}.cls-2,.cls-3{fill:#fff;}.cls-2{mix-blend-mode:luminosity;}</style></defs><title>icon_lock</title><g class="cls-1"><g id="Layer_1" data-name="Layer 1"><path class="cls-2" d="M370.4,283Z" transform="translate(-355.02 -215.54)"/><path class="cls-2" d="M13.18,67.49H118.56a13.18,13.18,0,0,1,13.18,13.18v23.78A63.7,63.7,0,0,1,68,168.14H62.55A62.55,62.55,0,0,1,0,105.59V80.67A13.18,13.18,0,0,1,13.18,67.49Z"/><path class="cls-3" d="M420.64,230.69C442.93,230.8,460.06,252,456,283h15c4.6-38.61-18.31-67.07-50.2-67.48-30.48-.39-54.27,27.57-50.21,67.48h14.66C381.23,251,398.86,230.59,420.64,230.69Z" transform="translate(-355.02 -215.54)"/><path class="cls-3" d="M431,328.47a10,10,0,1,0-13.5,9.41,1.85,1.85,0,0,0-.17.78v12.59a1.88,1.88,0,0,0,1.88,1.87h3.59a1.88,1.88,0,0,0,1.88-1.87V338.66a1.78,1.78,0,0,0-.19-.8A10,10,0,0,0,431,328.47Z" transform="translate(-355.02 -215.54)"/></g></g></svg>