<svg id="Layer_1" data-name="Layer 1" xmlns="http://www.w3.org/2000/svg" viewBox="0 0 72.2 74.28"><defs><style>.cls-1{fill:#e9f1fa;}.cls-2{fill:none;stroke:#cde0f4;stroke-miterlimit:10;stroke-width:2px;}.cls-3{fill:#cde0f4;}</style></defs><title>Untitled-3</title><path class="cls-1" d="M368.19,212.19a13.27,13.27,0,0,0-13.27-13.27H309.3A13.27,13.27,0,0,0,296,212.18h0v21.13a7.91,7.91,0,0,0,.06,1.19c0,.67-.06,1.36-.06,2a36.09,36.09,0,0,0,72.17,1.2q0-.6,0-1.2c0-.68,0-1.37-.06-2,0-.4.06-.8.06-1.19Z" transform="translate(-295.99 -198.92)"/><path class="cls-2" d="M338.56,227.12h-.39a10.39,10.39,0,0,0,.07-1.13c0-4.43-3-8-6.62-8s-6.63,3.6-6.63,8a10.39,10.39,0,0,0,.07,1.13h-.2a6.1,6.1,0,0,0-6.1,6.1v9.64a6.1,6.1,0,0,0,6.1,6.1h13.7a6.1,6.1,0,0,0,6.1-6.1v-9.64A6.1,6.1,0,0,0,338.56,227.12Z" transform="translate(-295.99 -198.92)"/><line class="cls-2" x1="29.07" y1="28.2" x2="42.57" y2="28.2"/><path class="cls-3" d="M333.34,236.13a1.91,1.91,0,1,0-3.81,0,1.88,1.88,0,0,0,.67,1.44v3.78a1.29,1.29,0,1,0,2.58,0v-3.87A1.87,1.87,0,0,0,333.34,236.13Z" transform="translate(-295.99 -198.92)"/></svg>